<svg width="100" height="100" viewBox="0 0 100 100" fill="none" xmlns="http://www.w3.org/2000/svg">
  <!-- Ondas repetidas -->
  <path d="M0 20C5 20 5 15 10 15C15 15 15 20 20 20C25 20 25 15 30 15C35 15 35 20 40 20C45 20 45 15 50 15C55 15 55 20 60 20C65 20 65 15 70 15C75 15 75 20 80 20C85 20 85 15 90 15C95 15 95 20 100 20" stroke="#E0F2FE" stroke-width="1.5" stroke-linecap="round"/>
  
  <path d="M0 40C5 40 5 35 10 35C15 35 15 40 20 40C25 40 25 35 30 35C35 35 35 40 40 40C45 40 45 35 50 35C55 35 55 40 60 40C65 40 65 35 70 35C75 35 75 40 80 40C85 40 85 35 90 35C95 35 95 40 100 40" stroke="#B9E6FE" stroke-width="1.5" stroke-linecap="round"/>
  
  <path d="M0 60C5 60 5 55 10 55C15 55 15 60 20 60C25 60 25 55 30 55C35 55 35 60 40 60C45 60 45 55 50 55C55 55 55 60 60 60C65 60 65 55 70 55C75 55 75 60 80 60C85 60 85 55 90 55C95 55 95 60 100 60" stroke="#7DD3FC" stroke-width="1.5" stroke-linecap="round"/>
  
  <!-- Elementos de praia: Estrelas do mar, conchas -->
  <!-- Estrela do mar 1 -->
  <path d="M15 80L17 76L15 72L19 74L23 72L21 76L23 80L19 78L15 80Z" fill="#DFC78B" opacity="0.4"/>
  
  <!-- Estrela do mar 2 -->
  <path d="M85 30L87 26L85 22L89 24L93 22L91 26L93 30L89 28L85 30Z" fill="#DFC78B" opacity="0.4"/>
  
  <!-- Concha 1 -->
  <path d="M40 85C40 85 42 82 45 82C48 82 50 85 50 85C50 85 48 88 45 88C42 88 40 85 40 85Z" fill="#EAE2D3" opacity="0.3"/>
  
  <!-- Concha 2 -->
  <path d="M70 50C70 50 72 47 75 47C78 47 80 50 80 50C80 50 78 53 75 53C72 53 70 50 70 50Z" fill="#EAE2D3" opacity="0.3"/>
  
  <!-- Círculos representando bolhas ou areia -->
  <circle cx="25" cy="10" r="2" fill="#DFC78B" opacity="0.3"/>
  <circle cx="65" cy="95" r="2" fill="#DFC78B" opacity="0.3"/>
  <circle cx="90" cy="70" r="2" fill="#DFC78B" opacity="0.3"/>
  <circle cx="10" cy="45" r="1.5" fill="#DFC78B" opacity="0.3"/>
  <circle cx="80" cy="15" r="1.5" fill="#DFC78B" opacity="0.3"/>
  <circle cx="45" cy="65" r="1.5" fill="#DFC78B" opacity="0.3"/>
</svg>
