<?xml version="1.0" standalone="no"?>
<!DOCTYPE svg PUBLIC "-//W3C//DTD SVG 20010904//EN"
 "http://www.w3.org/TR/2001/REC-SVG-20010904/DTD/svg10.dtd">
<svg version="1.0" xmlns="http://www.w3.org/2000/svg"
 width="1024.000000pt" height="1024.000000pt" viewBox="0 0 1024.000000 1024.000000"
 preserveAspectRatio="xMidYMid meet">

<g transform="translate(0.000000,1024.000000) scale(0.100000,-0.100000)"
fill="#000000" stroke="none">
<path d="M4200 7853 c-151 -86 -363 -206 -470 -267 l-195 -111 -3 -606 -2
-607 42 9 c24 4 60 10 80 14 l38 6 2 521 3 521 145 80 c80 44 237 131 350 193
l205 113 5 -752 5 -752 89 -23 c48 -13 90 -21 92 -19 3 2 6 358 7 791 1 432 3
786 4 786 2 0 83 -30 180 -66 278 -103 764 -280 806 -293 l37 -13 0 -218 c0
-120 4 -221 9 -224 5 -3 105 -35 222 -70 l214 -64 2 -287 c1 -158 3 -288 5
-290 2 -1 38 -5 81 -8 l78 -6 -3 272 -3 272 60 7 c89 11 102 19 107 68 2 23
-1 45 -7 50 -5 4 -62 24 -125 43 -63 19 -202 63 -309 96 -106 34 -195 61 -197
61 -2 0 -4 60 -4 134 l0 134 38 6 c100 18 92 11 92 79 l-1 62 -432 162 c-238
89 -546 205 -684 258 -139 52 -261 95 -270 95 -10 -1 -142 -71 -293 -157z"/>
<path d="M4870 7135 l0 -185 28 -6 c15 -3 60 -15 99 -25 40 -11 77 -19 83 -19
6 0 10 66 10 184 l0 184 -105 26 c-57 14 -107 26 -110 26 -3 0 -5 -83 -5 -185z"/>
<path d="M5302 7024 l3 -167 75 -18 c41 -10 85 -21 98 -24 l22 -5 0 168 0 169
-77 18 c-43 9 -88 19 -101 22 l-22 5 2 -168z"/>
<path d="M4010 7142 c-47 -21 -91 -41 -99 -46 -11 -7 -13 -41 -8 -184 4 -96 8
-176 9 -178 4 -3 179 49 193 58 6 4 10 19 9 35 -1 15 -3 101 -3 191 -1 89 -4
162 -8 161 -5 0 -46 -17 -93 -37z"/>
<path d="M4870 6431 c0 -217 -11 -194 100 -206 30 -3 70 -8 88 -11 l32 -6 0
190 0 189 -77 12 c-43 7 -93 15 -110 18 l-33 5 0 -191z"/>
<path d="M5300 6381 l0 -168 69 -12 c39 -6 84 -11 100 -11 l31 0 0 165 0 164
-32 5 c-18 3 -60 10 -92 16 -33 5 -63 10 -68 10 -4 0 -8 -76 -8 -169z"/>
<path d="M3765 6204 c-184 -30 -376 -120 -528 -248 -47 -38 -211 -225 -205
-231 2 -2 48 19 103 46 298 147 631 189 970 123 214 -41 491 -164 865 -383
497 -292 716 -371 1024 -371 297 0 521 86 709 272 48 47 87 92 87 98 0 10 -3
10 -14 1 -20 -17 -168 -65 -272 -89 -269 -62 -506 -52 -758 32 -144 48 -271
110 -541 263 -506 286 -734 390 -1010 459 -79 20 -131 26 -250 29 -82 2 -163
1 -180 -1z"/>
<path d="M5985 6076 c-90 -21 -148 -42 -285 -105 -198 -91 -232 -101 -384
-110 l-100 -6 95 -52 c220 -121 386 -128 614 -27 132 59 193 76 296 81 108 6
191 -13 299 -67 143 -72 310 -91 443 -50 61 19 225 115 214 126 -3 3 -29 -2
-58 -10 -67 -20 -207 -21 -282 -1 -31 8 -134 54 -229 103 -102 52 -202 96
-243 106 -94 24 -300 30 -380 12z"/>
<path d="M1700 4369 c-188 -21 -335 -152 -386 -344 -19 -69 -18 -209 2 -276
61 -209 240 -339 465 -339 140 0 276 64 354 166 30 39 30 40 33 192 l3 152
-201 0 -202 0 5 -67 4 -68 116 -3 117 -3 0 -49 c0 -41 -5 -55 -32 -85 -52 -60
-100 -79 -198 -79 -135 0 -217 49 -273 163 -29 60 -32 74 -32 161 0 84 3 102
29 158 52 112 148 175 266 176 83 0 144 -28 204 -95 l45 -50 60 40 c33 23 62
45 65 49 8 14 -70 103 -120 137 -82 55 -199 78 -324 64z"/>
<path d="M4427 4360 c-97 -25 -207 -107 -266 -198 -50 -79 -71 -159 -71 -270
0 -159 42 -264 145 -361 94 -89 207 -128 350 -118 137 9 252 68 319 166 33 48
34 46 -57 97 l-48 26 -36 -41 c-54 -64 -122 -94 -211 -94 -125 1 -209 58 -264
180 -18 39 -23 67 -23 143 0 81 4 103 26 150 69 148 205 213 349 169 44 -13
121 -79 146 -123 10 -19 14 -18 82 24 40 25 72 48 72 52 0 4 -27 36 -60 71
-44 48 -77 72 -132 98 -67 30 -82 34 -178 36 -58 1 -122 -2 -143 -7z"/>
<path d="M2414 4351 c-2 -2 -4 -213 -4 -468 l0 -463 305 0 305 0 0 75 0 75
-117 1 c-65 1 -165 2 -223 3 l-105 2 -3 127 -3 127 196 0 195 0 0 70 0 70
-195 0 -195 0 0 115 0 115 223 2 222 3 1 50 c0 28 -2 61 -4 75 l-4 25 -295 0
c-162 0 -297 -2 -299 -4z"/>
<path d="M3273 4352 l-33 -3 0 -465 0 -464 85 0 85 0 0 180 0 181 77 -3 77 -3
107 -175 106 -175 96 -3 c54 -1 97 -1 97 1 0 3 -17 31 -38 63 -106 161 -192
301 -192 311 0 5 18 18 41 28 52 24 122 101 137 153 17 55 15 150 -4 204 -19
59 -73 114 -138 144 -47 21 -67 23 -261 26 -115 2 -225 2 -242 0z m418 -163
c108 -55 82 -221 -40 -258 -21 -6 -84 -11 -140 -11 l-101 0 0 145 0 145 120 0
c102 0 127 -3 161 -21z"/>
<path d="M5025 4350 c1 -3 56 -90 120 -195 65 -104 142 -229 171 -277 l54 -87
0 -186 0 -185 80 0 80 0 0 188 0 188 81 130 c45 71 94 149 109 174 15 25 55
90 89 145 33 54 61 102 61 106 0 9 -163 11 -177 1 -7 -4 -62 -91 -123 -192
-62 -102 -115 -186 -118 -187 -4 -1 -38 52 -77 119 -38 66 -91 153 -117 194
l-47 74 -95 -2 c-52 -2 -93 -5 -91 -8z"/>
<path d="M6045 4351 c-3 -2 -5 -213 -5 -468 l0 -463 80 0 80 0 2 330 3 329
154 -305 c85 -167 159 -303 165 -302 6 2 79 138 163 303 l152 300 1 -327 0
-328 85 0 85 0 -2 468 -3 467 -89 0 -89 0 -150 -294 -150 -294 -28 54 c-15 30
-83 161 -152 293 l-124 238 -87 2 c-48 1 -89 0 -91 -3z"/>
<path d="M7540 4336 c-87 -223 -272 -690 -310 -781 -28 -66 -50 -124 -50 -128
0 -13 157 -8 167 6 6 6 27 56 49 110 l38 97 197 0 197 0 42 -110 43 -110 83 0
c53 0 84 4 84 11 0 6 -9 31 -19 57 -11 26 -86 214 -167 417 -80 204 -154 388
-164 410 l-18 39 -82 2 c-75 1 -82 0 -90 -20z m230 -543 c0 -10 -34 -13 -140
-13 -77 0 -140 3 -140 6 0 7 50 144 107 293 l36 94 68 -184 c37 -101 68 -190
69 -196z"/>
<path d="M8250 3890 l0 -470 80 0 80 0 2 178 3 177 68 3 c41 2 74 -2 83 -8 7
-7 54 -78 103 -159 127 -208 109 -192 214 -189 l87 3 -119 187 -119 187 55 28
c67 33 109 82 128 147 43 145 -10 285 -132 346 -55 27 -172 39 -400 39 l-133
0 0 -469z m437 303 c95 -45 98 -180 6 -243 -33 -23 -48 -25 -160 -29 l-123 -3
0 146 0 146 121 0 c92 0 129 -4 156 -17z"/>
</g>
</svg>
